    <svg viewBox="0 0 1160 880" width="1160" height="880"
         xmlns="http://www.w3.org/2000/svg"
         style="font-family:'JetBrains Mono',monospace;">

      <defs>
        <!-- Grid -->
        <pattern id="grid" width="40" height="40" patternUnits="userSpaceOnUse">
          <path d="M 40 0 L 0 0 0 40" fill="none" stroke="#1e293b" stroke-width="0.5"/>
        </pattern>
        <!-- Arrow markers -->
        <marker id="arrow-cyan" markerWidth="8" markerHeight="6" refX="7" refY="3" orient="auto">
          <polygon points="0 0, 8 3, 0 6" fill="#22d3ee"/>
        </marker>
        <marker id="arrow-green" markerWidth="8" markerHeight="6" refX="7" refY="3" orient="auto">
          <polygon points="0 0, 8 3, 0 6" fill="#34d399"/>
        </marker>
        <marker id="arrow-violet" markerWidth="8" markerHeight="6" refX="7" refY="3" orient="auto">
          <polygon points="0 0, 8 3, 0 6" fill="#a78bfa"/>
        </marker>
        <marker id="arrow-amber" markerWidth="8" markerHeight="6" refX="7" refY="3" orient="auto">
          <polygon points="0 0, 8 3, 0 6" fill="#fbbf24"/>
        </marker>
      </defs>

      <!-- Background -->
      <rect width="1160" height="880" fill="#020617"/>
      <rect width="1160" height="880" fill="url(#grid)"/>

      <!-- ═══════════════════════════════════════════════════════ -->
      <!-- ARROWS — drawn first so they sit behind all boxes      -->
      <!-- ═══════════════════════════════════════════════════════ -->
      <g opacity="0.65" stroke-width="1.2" stroke-dasharray="4,2" fill="none">
        <!-- 1. Web PWA → 网关 -->
        <line x1="310" y1="128" x2="430" y2="215"
              stroke="#22d3ee" marker-end="url(#arrow-cyan)"/>
        <!-- 2. TUI → 网关 -->
        <line x1="850" y1="128" x2="730" y2="215"
              stroke="#22d3ee" marker-end="url(#arrow-cyan)"/>
        <!-- 3. 网关 → Router -->
        <line x1="430" y1="215" x2="230" y2="264"
              stroke="#34d399" marker-end="url(#arrow-green)"/>
        <!-- 4. 网关 → ContextBuilder -->
        <line x1="580" y1="244" x2="580" y2="264"
              stroke="#34d399" marker-end="url(#arrow-green)"/>
        <!-- 5. 网关 → ClaudeAdapter -->
        <line x1="730" y1="215" x2="920" y2="264"
              stroke="#34d399" marker-end="url(#arrow-green)"/>
        <!-- 6. Router → MemoryMgr (vertical) -->
        <line x1="230" y1="344" x2="230" y2="364"
              stroke="#34d399" marker-end="url(#arrow-green)"/>
        <!-- 7. ContextBuilder → Scheduler (vertical) -->
        <line x1="580" y1="344" x2="580" y2="364"
              stroke="#34d399" marker-end="url(#arrow-green)"/>
        <!-- 8. MemoryMgr → MEMORY.md -->
        <line x1="140" y1="454" x2="120" y2="606"
              stroke="#a78bfa" marker-end="url(#arrow-violet)"/>
        <!-- 9. MemoryMgr → memory/*.md -->
        <line x1="230" y1="454" x2="310" y2="606"
              stroke="#a78bfa" marker-end="url(#arrow-violet)"/>
        <!-- 10. MemoryMgr → memory.db -->
        <line x1="310" y1="454" x2="530" y2="606"
              stroke="#a78bfa" marker-end="url(#arrow-violet)"/>
        <!-- 11. Scheduler → memory.db (data layer) -->
        <line x1="580" y1="454" x2="580" y2="606"
              stroke="#34d399" marker-end="url(#arrow-green)"/>
        <!-- 12. NeteaseAdapter → playlists.json -->
        <line x1="213" y1="770" x2="760" y2="716"
              stroke="#34d399" marker-end="url(#arrow-green)"/>
        <!-- 13. 同步结果 → MEMORY.md (long line) -->
        <line x1="900" y1="770" x2="200" y2="716"
              stroke="#34d399" marker-end="url(#arrow-green)"/>
      </g>

      <!-- ═══════════════════════════════════════════════════════ -->
      <!-- LAYER 1: 用户界面层                                    -->
      <!-- ═══════════════════════════════════════════════════════ -->

      <!-- Layer container -->
      <rect x="32" y="18" width="1096" height="132" rx="8" fill="#0f172a"/>
      <rect x="32" y="18" width="1096" height="132" rx="8"
            fill="rgba(15,23,42,0.15)" stroke="#1e3a5f" stroke-width="1"/>
      <!-- Layer label (vertical) -->
      <text x="16" y="84"
            fill="#475569" font-size="9" font-weight="500"
            writing-mode="tb" text-anchor="middle" letter-spacing="1">用户界面层</text>

      <!-- Web PWA -->
      <rect x="80" y="36" width="460" height="92" rx="6" fill="#0f172a"/>
      <rect x="80" y="36" width="460" height="92" rx="6"
            fill="rgba(8,51,68,0.4)" stroke="#22d3ee" stroke-width="1.5"/>
      <text x="310" y="58" fill="white" font-size="12" font-weight="600"
            text-anchor="middle">Web PWA</text>
      <text x="310" y="74" fill="#94a3b8" font-size="9"
            text-anchor="middle">浏览器 / 桌面 App（可安装）</text>
      <!-- sub-labels -->
      <rect x="90" y="84" width="112" height="18" rx="3" fill="#0f172a"/>
      <rect x="90" y="84" width="112" height="18" rx="3"
            fill="rgba(8,51,68,0.6)" stroke="#22d3ee" stroke-width="0.8"/>
      <text x="146" y="96" fill="#67e8f9" font-size="8" text-anchor="middle">HTML5 Audio</text>

      <rect x="248" y="84" width="112" height="18" rx="3" fill="#0f172a"/>
      <rect x="248" y="84" width="112" height="18" rx="3"
            fill="rgba(8,51,68,0.6)" stroke="#22d3ee" stroke-width="0.8"/>
      <text x="304" y="96" fill="#67e8f9" font-size="8" text-anchor="middle">Canvas 可视化</text>

      <rect x="406" y="84" width="112" height="18" rx="3" fill="#0f172a"/>
      <rect x="406" y="84" width="112" height="18" rx="3"
            fill="rgba(8,51,68,0.6)" stroke="#22d3ee" stroke-width="0.8"/>
      <text x="462" y="96" fill="#67e8f9" font-size="8" text-anchor="middle">WebSocket</text>

      <!-- TUI -->
      <rect x="620" y="36" width="460" height="92" rx="6" fill="#0f172a"/>
      <rect x="620" y="36" width="460" height="92" rx="6"
            fill="rgba(8,51,68,0.4)" stroke="#22d3ee" stroke-width="1.5"/>
      <text x="850" y="58" fill="white" font-size="12" font-weight="600"
            text-anchor="middle">TUI 终端播放器</text>
      <text x="850" y="74" fill="#94a3b8" font-size="9"
            text-anchor="middle">blessed 框架 · 键盘操作</text>
      <!-- sub-labels -->
      <rect x="630" y="84" width="112" height="18" rx="3" fill="#0f172a"/>
      <rect x="630" y="84" width="112" height="18" rx="3"
            fill="rgba(8,51,68,0.6)" stroke="#22d3ee" stroke-width="0.8"/>
      <text x="686" y="96" fill="#67e8f9" font-size="8" text-anchor="middle">blessed UI</text>

      <rect x="788" y="84" width="112" height="18" rx="3" fill="#0f172a"/>
      <rect x="788" y="84" width="112" height="18" rx="3"
            fill="rgba(8,51,68,0.6)" stroke="#22d3ee" stroke-width="0.8"/>
      <text x="844" y="96" fill="#67e8f9" font-size="8" text-anchor="middle">mpv 本地播放</text>

      <rect x="946" y="84" width="112" height="18" rx="3" fill="#0f172a"/>
      <rect x="946" y="84" width="112" height="18" rx="3"
            fill="rgba(8,51,68,0.6)" stroke="#22d3ee" stroke-width="0.8"/>
      <text x="1002" y="96" fill="#67e8f9" font-size="8" text-anchor="middle">WebSocket</text>

      <!-- ═══════════════════════════════════════════════════════ -->
      <!-- LAYER 2: 服务层                                        -->
      <!-- ═══════════════════════════════════════════════════════ -->

      <rect x="32" y="168" width="1096" height="402" rx="8" fill="#0f172a"/>
      <rect x="32" y="168" width="1096" height="402" rx="8"
            fill="rgba(15,23,42,0.15)" stroke="#1e3a2f" stroke-width="1"/>
      <text x="16" y="370"
            fill="#475569" font-size="9" font-weight="500"
            writing-mode="tb" text-anchor="middle" letter-spacing="1">服务层</text>

      <!-- HTTP/WebSocket 网关 -->
      <rect x="430" y="186" width="300" height="58" rx="6" fill="#0f172a"/>
      <rect x="430" y="186" width="300" height="58" rx="6"
            fill="rgba(6,78,59,0.4)" stroke="#34d399" stroke-width="1.5"/>
      <text x="580" y="208" fill="white" font-size="12" font-weight="600"
            text-anchor="middle">HTTP/WebSocket 网关</text>
      <text x="580" y="224" fill="#94a3b8" font-size="9"
            text-anchor="middle">server/index.js · Express · 广播路由</text>

      <!-- Router -->
      <rect x="80" y="264" width="300" height="80" rx="6" fill="#0f172a"/>
      <rect x="80" y="264" width="300" height="80" rx="6"
            fill="rgba(6,78,59,0.4)" stroke="#34d399" stroke-width="1.5"/>
      <text x="230" y="284" fill="white" font-size="12" font-weight="600"
            text-anchor="middle">Router 意图分流</text>
      <text x="230" y="298" fill="#94a3b8" font-size="9"
            text-anchor="middle">router.js</text>

      <rect x="88" y="312" width="80" height="18" rx="3" fill="#0f172a"/>
      <rect x="88" y="312" width="80" height="18" rx="3"
            fill="rgba(6,78,59,0.6)" stroke="#34d399" stroke-width="0.8"/>
      <text x="128" y="324" fill="#6ee7b7" font-size="8" text-anchor="middle">直接指令</text>

      <rect x="186" y="312" width="80" height="18" rx="3" fill="#0f172a"/>
      <rect x="186" y="312" width="80" height="18" rx="3"
            fill="rgba(6,78,59,0.6)" stroke="#34d399" stroke-width="0.8"/>
      <text x="226" y="324" fill="#6ee7b7" font-size="8" text-anchor="middle">音乐搜索</text>

      <rect x="284" y="312" width="80" height="18" rx="3" fill="#0f172a"/>
      <rect x="284" y="312" width="80" height="18" rx="3"
            fill="rgba(6,78,59,0.6)" stroke="#34d399" stroke-width="0.8"/>
      <text x="324" y="324" fill="#6ee7b7" font-size="8" text-anchor="middle">自然语言</text>

      <!-- ContextBuilder -->
      <rect x="430" y="264" width="300" height="80" rx="6" fill="#0f172a"/>
      <rect x="430" y="264" width="300" height="80" rx="6"
            fill="rgba(6,78,59,0.4)" stroke="#34d399" stroke-width="1.5"/>
      <text x="580" y="284" fill="white" font-size="12" font-weight="600"
            text-anchor="middle">ContextBuilder 提示词组装</text>
      <text x="580" y="298" fill="#94a3b8" font-size="9"
            text-anchor="middle">context-builder.js</text>

      <rect x="438" y="312" width="130" height="18" rx="3" fill="#0f172a"/>
      <rect x="438" y="312" width="130" height="18" rx="3"
            fill="rgba(6,78,59,0.6)" stroke="#34d399" stroke-width="0.8"/>
      <text x="503" y="324" fill="#6ee7b7" font-size="8" text-anchor="middle">记忆注入 L1+L2+L3</text>

      <rect x="582" y="312" width="130" height="18" rx="3" fill="#0f172a"/>
      <rect x="582" y="312" width="130" height="18" rx="3"
            fill="rgba(6,78,59,0.6)" stroke="#34d399" stroke-width="0.8"/>
      <text x="647" y="324" fill="#6ee7b7" font-size="8" text-anchor="middle">Skills 自动加载</text>

      <!-- Claude Adapter (AI / amber) -->
      <rect x="780" y="264" width="280" height="80" rx="6" fill="#0f172a"/>
      <rect x="780" y="264" width="280" height="80" rx="6"
            fill="rgba(120,53,15,0.3)" stroke="#fbbf24" stroke-width="1.5"/>
      <text x="920" y="284" fill="white" font-size="12" font-weight="600"
            text-anchor="middle">Claude Adapter</text>
      <text x="920" y="298" fill="#94a3b8" font-size="9"
            text-anchor="middle">优先级: CLI › API › 降级</text>

      <rect x="788" y="312" width="116" height="18" rx="3" fill="#0f172a"/>
      <rect x="788" y="312" width="116" height="18" rx="3"
            fill="rgba(120,53,15,0.5)" stroke="#fbbf24" stroke-width="0.8"/>
      <text x="846" y="324" fill="#fcd34d" font-size="8" text-anchor="middle">Claude CLI</text>

      <rect x="916" y="312" width="116" height="18" rx="3" fill="#0f172a"/>
      <rect x="916" y="312" width="116" height="18" rx="3"
            fill="rgba(120,53,15,0.5)" stroke="#fbbf24" stroke-width="0.8"/>
      <text x="974" y="324" fill="#fcd34d" font-size="8" text-anchor="middle">Anthropic API</text>

      <!-- Memory Manager (violet / db) -->
      <rect x="80" y="364" width="300" height="90" rx="6" fill="#0f172a"/>
      <rect x="80" y="364" width="300" height="90" rx="6"
            fill="rgba(76,29,149,0.4)" stroke="#a78bfa" stroke-width="1.5"/>
      <text x="230" y="384" fill="white" font-size="12" font-weight="600"
            text-anchor="middle">Memory Manager</text>
      <text x="230" y="398" fill="#94a3b8" font-size="9"
            text-anchor="middle">memory-manager.js</text>

      <rect x="88" y="410" width="130" height="17" rx="3" fill="#0f172a"/>
      <rect x="88" y="410" width="130" height="17" rx="3"
            fill="rgba(76,29,149,0.5)" stroke="#a78bfa" stroke-width="0.8"/>
      <text x="153" y="422" fill="#c4b5fd" font-size="8" text-anchor="middle">appendRaw 实时写入</text>

      <rect x="234" y="410" width="130" height="17" rx="3" fill="#0f172a"/>
      <rect x="234" y="410" width="130" height="17" rx="3"
            fill="rgba(76,29,149,0.5)" stroke="#a78bfa" stroke-width="0.8"/>
      <text x="299" y="422" fill="#c4b5fd" font-size="8" text-anchor="middle">flushSession 摘要</text>

      <rect x="88" y="431" width="130" height="17" rx="3" fill="#0f172a"/>
      <rect x="88" y="431" width="130" height="17" rx="3"
            fill="rgba(76,29,149,0.5)" stroke="#a78bfa" stroke-width="0.8"/>
      <text x="153" y="443" fill="#c4b5fd" font-size="8" text-anchor="middle">FTS5 语义检索</text>

      <rect x="234" y="431" width="130" height="17" rx="3" fill="#0f172a"/>
      <rect x="234" y="431" width="130" height="17" rx="3"
            fill="rgba(76,29,149,0.5)" stroke="#a78bfa" stroke-width="0.8"/>
      <text x="299" y="443" fill="#c4b5fd" font-size="8" text-anchor="middle">L1·L2·L3 三层</text>

      <!-- Scheduler -->
      <rect x="430" y="364" width="300" height="90" rx="6" fill="#0f172a"/>
      <rect x="430" y="364" width="300" height="90" rx="6"
            fill="rgba(6,78,59,0.4)" stroke="#34d399" stroke-width="1.5"/>
      <text x="580" y="384" fill="white" font-size="12" font-weight="600"
            text-anchor="middle">Scheduler 节律调度</text>
      <text x="580" y="398" fill="#94a3b8" font-size="9"
            text-anchor="middle">scheduler.js · node-cron</text>

      <rect x="438" y="410" width="130" height="17" rx="3" fill="#0f172a"/>
      <rect x="438" y="410" width="130" height="17" rx="3"
            fill="rgba(6,78,59,0.6)" stroke="#34d399" stroke-width="0.8"/>
      <text x="503" y="422" fill="#6ee7b7" font-size="8" text-anchor="middle">早/午/晚 定时推荐</text>

      <rect x="582" y="410" width="130" height="17" rx="3" fill="#0f172a"/>
      <rect x="582" y="410" width="130" height="17" rx="3"
            fill="rgba(6,78,59,0.6)" stroke="#34d399" stroke-width="0.8"/>
      <text x="647" y="422" fill="#6ee7b7" font-size="8" text-anchor="middle">凌晨3点 品味更新</text>

      <rect x="438" y="431" width="130" height="17" rx="3" fill="#0f172a"/>
      <rect x="438" y="431" width="130" height="17" rx="3"
            fill="rgba(6,78,59,0.6)" stroke="#34d399" stroke-width="0.8"/>
      <text x="503" y="443" fill="#6ee7b7" font-size="8" text-anchor="middle">每30分钟 摘要</text>

      <rect x="582" y="431" width="130" height="17" rx="3" fill="#0f172a"/>
      <rect x="582" y="431" width="130" height="17" rx="3"
            fill="rgba(6,78,59,0.6)" stroke="#34d399" stroke-width="0.8"/>
      <text x="647" y="443" fill="#6ee7b7" font-size="8" text-anchor="middle">凌晨2点 FTS5重建</text>

      <!-- 外部服务 -->
      <rect x="780" y="364" width="280" height="90" rx="6" fill="#0f172a"/>
      <rect x="780" y="364" width="280" height="90" rx="6"
            fill="rgba(30,41,59,0.5)" stroke="#94a3b8" stroke-width="1.5"/>
      <text x="920" y="384" fill="white" font-size="12" font-weight="600"
            text-anchor="middle">外部服务</text>

      <rect x="788" y="393" width="254" height="17" rx="3" fill="#0f172a"/>
      <rect x="788" y="393" width="254" height="17" rx="3"
            fill="rgba(30,41,59,0.7)" stroke="#64748b" stroke-width="0.8"/>
      <text x="915" y="405" fill="#cbd5e1" font-size="8" text-anchor="middle">🎵 网易云 Music API :3000</text>

      <rect x="788" y="414" width="254" height="17" rx="3" fill="#0f172a"/>
      <rect x="788" y="414" width="254" height="17" rx="3"
            fill="rgba(30,41,59,0.7)" stroke="#64748b" stroke-width="0.8"/>
      <text x="915" y="426" fill="#cbd5e1" font-size="8" text-anchor="middle">🌤 Weather API (Open-Meteo)</text>

      <rect x="788" y="435" width="254" height="17" rx="3" fill="#0f172a"/>
      <rect x="788" y="435" width="254" height="17" rx="3"
            fill="rgba(30,41,59,0.7)" stroke="#64748b" stroke-width="0.8"/>
      <text x="915" y="447" fill="#cbd5e1" font-size="8" text-anchor="middle">🔊 TTS Service</text>

      <!-- Playback Service -->
      <rect x="430" y="474" width="690" height="76" rx="6" fill="#0f172a"/>
      <rect x="430" y="474" width="690" height="76" rx="6"
            fill="rgba(30,41,59,0.5)" stroke="#94a3b8" stroke-width="1.5"/>
      <text x="775" y="496" fill="white" font-size="12" font-weight="600"
            text-anchor="middle">Playback Service · 多平台播放 URL 获取</text>
      <text x="775" y="511" fill="#94a3b8" font-size="9"
            text-anchor="middle">playback-service.js</text>

      <rect x="438" y="520" width="296" height="22" rx="3" fill="#0f172a"/>
      <rect x="438" y="520" width="296" height="22" rx="3"
            fill="rgba(30,41,59,0.7)" stroke="#64748b" stroke-width="0.8"/>
      <text x="586" y="535" fill="#cbd5e1" font-size="8" text-anchor="middle">网易云 API 直链</text>

      <rect x="750" y="520" width="362" height="22" rx="3" fill="#0f172a"/>
      <rect x="750" y="520" width="362" height="22" rx="3"
            fill="rgba(30,41,59,0.7)" stroke="#64748b" stroke-width="0.8"/>
      <text x="931" y="535" fill="#cbd5e1" font-size="8" text-anchor="middle">QQ音乐 本地文件 / 搜索回退</text>

      <!-- ═══════════════════════════════════════════════════════ -->
      <!-- LAYER 3: 数据层                                        -->
      <!-- ═══════════════════════════════════════════════════════ -->

      <rect x="32" y="588" width="1096" height="148" rx="8" fill="#0f172a"/>
      <rect x="32" y="588" width="1096" height="148" rx="8"
            fill="rgba(15,23,42,0.15)" stroke="#2d1b69" stroke-width="1"/>
      <text x="16" y="665"
            fill="#475569" font-size="9" font-weight="500"
            writing-mode="tb" text-anchor="middle" letter-spacing="1">数据层</text>

      <!-- MEMORY.md -->
      <rect x="47" y="606" width="200" height="110" rx="6" fill="#0f172a"/>
      <rect x="47" y="606" width="200" height="110" rx="6"
            fill="rgba(76,29,149,0.4)" stroke="#a78bfa" stroke-width="1.5"/>
      <text x="147" y="626" fill="white" font-size="12" font-weight="600"
            text-anchor="middle">MEMORY.md</text>
      <text x="147" y="640" fill="#94a3b8" font-size="9"
            text-anchor="middle">L1 常青记忆（每次注入）</text>
      <rect x="55" y="648" width="184" height="16" rx="3" fill="#0f172a"/>
      <rect x="55" y="648" width="184" height="16" rx="3"
            fill="rgba(76,29,149,0.5)" stroke="#a78bfa" stroke-width="0.8"/>
      <text x="147" y="660" fill="#c4b5fd" font-size="8" text-anchor="middle">用户品味偏好</text>
      <rect x="55" y="668" width="184" height="16" rx="3" fill="#0f172a"/>
      <rect x="55" y="668" width="184" height="16" rx="3"
            fill="rgba(76,29,149,0.5)" stroke="#a78bfa" stroke-width="0.8"/>
      <text x="147" y="680" fill="#c4b5fd" font-size="8" text-anchor="middle">收藏曲目 / 艺人</text>
      <rect x="55" y="688" width="184" height="16" rx="3" fill="#0f172a"/>
      <rect x="55" y="688" width="184" height="16" rx="3"
            fill="rgba(76,29,149,0.5)" stroke="#a78bfa" stroke-width="0.8"/>
      <text x="147" y="700" fill="#c4b5fd" font-size="8" text-anchor="middle">长期记忆摘要</text>

      <!-- memory/*.md -->
      <rect x="266" y="606" width="200" height="110" rx="6" fill="#0f172a"/>
      <rect x="266" y="606" width="200" height="110" rx="6"
            fill="rgba(76,29,149,0.4)" stroke="#a78bfa" stroke-width="1.5"/>
      <text x="366" y="626" fill="white" font-size="12" font-weight="600"
            text-anchor="middle">memory/*.md</text>
      <text x="366" y="640" fill="#94a3b8" font-size="9"
            text-anchor="middle">L2 每日对话日志</text>
      <rect x="274" y="648" width="184" height="16" rx="3" fill="#0f172a"/>
      <rect x="274" y="648" width="184" height="16" rx="3"
            fill="rgba(76,29,149,0.5)" stroke="#a78bfa" stroke-width="0.8"/>
      <text x="366" y="660" fill="#c4b5fd" font-size="8" text-anchor="middle">YYYY-MM-DD.md</text>
      <rect x="274" y="668" width="184" height="16" rx="3" fill="#0f172a"/>
      <rect x="274" y="668" width="184" height="16" rx="3"
            fill="rgba(76,29,149,0.5)" stroke="#a78bfa" stroke-width="0.8"/>
      <text x="366" y="680" fill="#c4b5fd" font-size="8" text-anchor="middle">对话上下文 / 播放记录</text>
      <rect x="274" y="688" width="184" height="16" rx="3" fill="#0f172a"/>
      <rect x="274" y="688" width="184" height="16" rx="3"
            fill="rgba(76,29,149,0.5)" stroke="#a78bfa" stroke-width="0.8"/>
      <text x="366" y="700" fill="#c4b5fd" font-size="8" text-anchor="middle">会话摘要（每30分钟）</text>

      <!-- memory.db -->
      <rect x="485" y="606" width="200" height="110" rx="6" fill="#0f172a"/>
      <rect x="485" y="606" width="200" height="110" rx="6"
            fill="rgba(76,29,149,0.4)" stroke="#a78bfa" stroke-width="1.5"/>
      <text x="585" y="626" fill="white" font-size="12" font-weight="600"
            text-anchor="middle">memory.db</text>
      <text x="585" y="640" fill="#94a3b8" font-size="9"
            text-anchor="middle">L3 SQLite FTS5 索引</text>
      <rect x="493" y="648" width="184" height="16" rx="3" fill="#0f172a"/>
      <rect x="493" y="648" width="184" height="16" rx="3"
            fill="rgba(76,29,149,0.5)" stroke="#a78bfa" stroke-width="0.8"/>
      <text x="585" y="660" fill="#c4b5fd" font-size="8" text-anchor="middle">全文检索索引</text>
      <rect x="493" y="668" width="184" height="16" rx="3" fill="#0f172a"/>
      <rect x="493" y="668" width="184" height="16" rx="3"
            fill="rgba(76,29,149,0.5)" stroke="#a78bfa" stroke-width="0.8"/>
      <text x="585" y="680" fill="#c4b5fd" font-size="8" text-anchor="middle">语义相似度检索</text>
      <rect x="493" y="688" width="184" height="16" rx="3" fill="#0f172a"/>
      <rect x="493" y="688" width="184" height="16" rx="3"
            fill="rgba(76,29,149,0.5)" stroke="#a78bfa" stroke-width="0.8"/>
      <text x="585" y="700" fill="#c4b5fd" font-size="8" text-anchor="middle">凌晨2点自动重建</text>

      <!-- playlists.json -->
      <rect x="704" y="606" width="200" height="110" rx="6" fill="#0f172a"/>
      <rect x="704" y="606" width="200" height="110" rx="6"
            fill="rgba(30,41,59,0.5)" stroke="#94a3b8" stroke-width="1.5"/>
      <text x="804" y="626" fill="white" font-size="12" font-weight="600"
            text-anchor="middle">playlists.json</text>
      <text x="804" y="640" fill="#94a3b8" font-size="9"
            text-anchor="middle">歌单数据</text>
      <rect x="712" y="648" width="184" height="16" rx="3" fill="#0f172a"/>
      <rect x="712" y="648" width="184" height="16" rx="3"
            fill="rgba(30,41,59,0.7)" stroke="#64748b" stroke-width="0.8"/>
      <text x="804" y="660" fill="#cbd5e1" font-size="8" text-anchor="middle">用户歌单列表</text>
      <rect x="712" y="668" width="184" height="16" rx="3" fill="#0f172a"/>
      <rect x="712" y="668" width="184" height="16" rx="3"
            fill="rgba(30,41,59,0.7)" stroke="#64748b" stroke-width="0.8"/>
      <text x="804" y="680" fill="#cbd5e1" font-size="8" text-anchor="middle">曲目元数据缓存</text>
      <rect x="712" y="688" width="184" height="16" rx="3" fill="#0f172a"/>
      <rect x="712" y="688" width="184" height="16" rx="3"
            fill="rgba(30,41,59,0.7)" stroke="#64748b" stroke-width="0.8"/>
      <text x="804" y="700" fill="#cbd5e1" font-size="8" text-anchor="middle">本地同步缓存</text>

      <!-- 配置 & 状态 -->
      <rect x="923" y="606" width="200" height="110" rx="6" fill="#0f172a"/>
      <rect x="923" y="606" width="200" height="110" rx="6"
            fill="rgba(30,41,59,0.5)" stroke="#94a3b8" stroke-width="1.5"/>
      <text x="1023" y="626" fill="white" font-size="12" font-weight="600"
            text-anchor="middle">配置 &amp; 状态</text>
      <text x="1023" y="640" fill="#94a3b8" font-size="9"
            text-anchor="middle">用户配置 / 运行时状态</text>
      <rect x="931" y="648" width="184" height="16" rx="3" fill="#0f172a"/>
      <rect x="931" y="648" width="184" height="16" rx="3"
            fill="rgba(30,41,59,0.7)" stroke="#64748b" stroke-width="0.8"/>
      <text x="1023" y="660" fill="#cbd5e1" font-size="8" text-anchor="middle">config.json</text>
      <rect x="931" y="668" width="184" height="16" rx="3" fill="#0f172a"/>
      <rect x="931" y="668" width="184" height="16" rx="3"
            fill="rgba(30,41,59,0.7)" stroke="#64748b" stroke-width="0.8"/>
      <text x="1023" y="680" fill="#cbd5e1" font-size="8" text-anchor="middle">state.json 运行时状态</text>
      <rect x="931" y="688" width="184" height="16" rx="3" fill="#0f172a"/>
      <rect x="931" y="688" width="184" height="16" rx="3"
            fill="rgba(30,41,59,0.7)" stroke="#64748b" stroke-width="0.8"/>
      <text x="1023" y="700" fill="#cbd5e1" font-size="8" text-anchor="middle">.env API Keys</text>

      <!-- ═══════════════════════════════════════════════════════ -->
      <!-- LAYER 4: 同步层 (macOS only)                          -->
      <!-- ═══════════════════════════════════════════════════════ -->

      <rect x="32" y="754" width="1096" height="90" rx="8" fill="#0f172a"/>
      <rect x="32" y="754" width="1096" height="90" rx="8"
            fill="rgba(15,23,42,0.15)" stroke="#1e3a2f" stroke-width="1"/>
      <text x="16" y="800"
            fill="#475569" font-size="9" font-weight="500"
            writing-mode="tb" text-anchor="middle" letter-spacing="1">同步层</text>

      <!-- macOS only badge -->
      <rect x="38" y="757" width="76" height="16" rx="8"
            fill="rgba(120,53,15,0.3)" stroke="#fbbf24" stroke-width="0.8"/>
      <text x="76" y="769" fill="#fbbf24" font-size="7"
            text-anchor="middle">macOS only</text>

      <!-- NeteaseLocalAdapter -->
      <rect x="48" y="770" width="330" height="60" rx="6" fill="#0f172a"/>
      <rect x="48" y="770" width="330" height="60" rx="6"
            fill="rgba(6,78,59,0.4)" stroke="#34d399" stroke-width="1.5"/>
      <text x="213" y="793" fill="white" font-size="12" font-weight="600"
            text-anchor="middle">NeteaseLocalAdapter</text>
      <text x="213" y="810" fill="#94a3b8" font-size="9"
            text-anchor="middle">读取网易云本地 SQLite</text>

      <!-- QQMusicLocalAdapter -->
      <rect x="414" y="770" width="330" height="60" rx="6" fill="#0f172a"/>
      <rect x="414" y="770" width="330" height="60" rx="6"
            fill="rgba(6,78,59,0.4)" stroke="#34d399" stroke-width="1.5"/>
      <text x="579" y="793" fill="white" font-size="12" font-weight="600"
            text-anchor="middle">QQMusicLocalAdapter</text>
      <text x="579" y="810" fill="#94a3b8" font-size="9"
            text-anchor="middle">读取QQ音乐本地 SQLite</text>

      <!-- 同步结果 (dashed border) -->
      <rect x="780" y="770" width="340" height="60" rx="6" fill="#0f172a"/>
      <rect x="780" y="770" width="340" height="60" rx="6"
            fill="rgba(6,78,59,0.25)" stroke="#34d399" stroke-width="1.5"
            stroke-dasharray="5,3"/>
      <text x="950" y="793" fill="white" font-size="12" font-weight="600"
            text-anchor="middle">同步完成</text>
      <text x="950" y="810" fill="#94a3b8" font-size="9"
            text-anchor="middle">自动更新 MEMORY.md 品味区块</text>

    </svg>
